<?xml version="1.0" encoding="UTF-8"?>
<!DOCTYPE svg PUBLIC "-//W3C//DTD SVG 1.1//EN" "http://www.w3.org/Graphics/SVG/1.1/DTD/svg11.dtd">
<svg xmlns="http://www.w3.org/2000/svg" version="1.1" width="500px" height="500px" style="shape-rendering:geometricPrecision; text-rendering:geometricPrecision; image-rendering:optimizeQuality; fill-rule:evenodd; clip-rule:evenodd" xmlns:xlink="http://www.w3.org/1999/xlink">
<g><path style="opacity:0.956" fill="#9e8bff" d="M 301.5,3.5 C 305.127,4.27957 308.46,5.77957 311.5,8C 355.89,40.61 372.39,84.11 361,138.5C 346.545,184.148 316.045,212.648 269.5,224C 214.013,231.501 171.513,211.668 142,164.5C 140.963,161.595 139.796,158.761 138.5,156C 195.777,159.612 241.61,138.445 276,92.5C 293.205,65.3976 301.705,35.731 301.5,3.5 Z"/></g>
<g><path style="opacity:0.998" fill="#9d8afe" d="M 474.5,370.5 C 457.005,371.332 439.338,371.832 421.5,372C 416.167,376.333 416.167,380.667 421.5,385C 440.178,385.688 458.845,385.521 477.5,384.5C 477.5,387.167 477.5,389.833 477.5,392.5C 465.079,394.855 452.745,397.688 440.5,401C 434.167,401.333 427.833,401.667 421.5,402C 416.167,406.333 416.167,410.667 421.5,415C 437.586,415.051 453.253,412.384 468.5,407C 471.817,406.502 475.15,406.335 478.5,406.5C 478.5,437.5 478.5,468.5 478.5,499.5C 333.167,499.5 187.833,499.5 42.5,499.5C 45.0634,486.516 47.5634,473.516 50,460.5C 50.4999,442.836 50.6666,425.17 50.5,407.5C 53.8499,407.335 57.1832,407.502 60.5,408C 72.7385,410.976 85.0718,413.476 97.5,415.5C 105.239,416.258 108.739,412.925 108,405.5C 106.681,403.513 104.848,402.346 102.5,402C 87.5781,400.883 72.9114,398.216 58.5,394C 55.854,393.503 53.1873,393.336 50.5,393.5C 50.5,389.5 50.5,385.5 50.5,381.5C 50.4346,381.062 50.6012,380.728 51,380.5C 53.9301,382.255 57.0967,383.422 60.5,384C 81.2906,388.162 102.291,389.495 123.5,388C 127.826,382.956 127.16,378.622 121.5,375C 103.098,375.034 84.7644,374.034 66.5,372C 60.1307,371.311 54.7973,368.811 50.5,364.5C 50.3333,301.832 50.5,239.166 51,176.5C 53.3934,172.743 56.7267,170.743 61,170.5C 65.7676,170.926 69.9342,172.759 73.5,176C 81.5987,182.095 89.0987,188.928 96,196.5C 110.861,214.393 125.361,232.56 139.5,251C 155.591,261.449 173.257,267.782 192.5,270C 244.225,270.986 295.892,270.653 347.5,269C 373.505,251.998 394.338,230.165 410,203.5C 414.865,197.984 420.698,193.817 427.5,191C 435.56,180.573 442.726,181.073 449,192.5C 454.776,216.472 457.11,240.806 456,265.5C 459.846,289.474 463.513,313.474 467,337.5C 469.439,348.529 471.939,359.529 474.5,370.5 Z"/></g>
<g><path style="opacity:1" fill="#000000" d="M 346.5,324.5 C 354.54,322.935 360.04,325.935 363,333.5C 366.394,344.769 362.228,350.269 350.5,350C 341.169,347.172 337.669,341.006 340,331.5C 341.694,328.642 343.861,326.309 346.5,324.5 Z"/></g>
<g><path style="opacity:1" fill="#000000" d="M 140.5,326.5 C 145.412,326.063 150.078,326.896 154.5,329C 160.15,337.112 158.817,344.112 150.5,350C 139.868,354.35 133.534,350.85 131.5,339.5C 131.802,333.213 134.802,328.88 140.5,326.5 Z"/></g>
<g><path style="opacity:0.964" fill="#030306" d="M 50.5,364.5 C 54.7973,368.811 60.1307,371.311 66.5,372C 84.7644,374.034 103.098,375.034 121.5,375C 127.16,378.622 127.826,382.956 123.5,388C 102.291,389.495 81.2906,388.162 60.5,384C 57.0967,383.422 53.9301,382.255 51,380.5C 50.6012,380.728 50.4346,381.062 50.5,381.5C 36.162,373.331 21.8286,365.165 7.5,357C 5.34965,355.589 3.01632,354.755 0.5,354.5C 0.172521,349.456 0.505854,344.456 1.5,339.5C 7.14919,340.822 12.4825,342.989 17.5,346C 27.9397,353.219 38.9397,359.385 50.5,364.5 Z"/></g>
<g><path style="opacity:0.984" fill="#07050b" d="M 499.5,367.5 C 499.5,372.167 499.5,376.833 499.5,381.5C 492.219,382.791 484.885,383.791 477.5,384.5C 458.845,385.521 440.178,385.688 421.5,385C 416.167,380.667 416.167,376.333 421.5,372C 439.338,371.832 457.005,371.332 474.5,370.5C 482.844,369.582 491.177,368.582 499.5,367.5 Z"/></g>
<g><path style="opacity:0.991" fill="#040306" d="M 499.5,391.5 C 499.5,396.167 499.5,400.833 499.5,405.5C 492.524,406.232 485.524,406.565 478.5,406.5C 475.15,406.335 471.817,406.502 468.5,407C 453.253,412.384 437.586,415.051 421.5,415C 416.167,410.667 416.167,406.333 421.5,402C 427.833,401.667 434.167,401.333 440.5,401C 452.745,397.688 465.079,394.855 477.5,392.5C 484.849,392.451 492.183,392.118 499.5,391.5 Z"/></g>
<g><path style="opacity:0.987" fill="#030205" d="M 50.5,393.5 C 53.1873,393.336 55.854,393.503 58.5,394C 72.9114,398.216 87.5781,400.883 102.5,402C 104.848,402.346 106.681,403.513 108,405.5C 108.739,412.925 105.239,416.258 97.5,415.5C 85.0718,413.476 72.7385,410.976 60.5,408C 57.1832,407.502 53.8499,407.335 50.5,407.5C 35.4963,407.667 20.4963,407.5 5.5,407C 0.166667,402.667 0.166667,398.333 5.5,394C 20.4963,393.5 35.4963,393.333 50.5,393.5 Z"/></g>
</svg>
